<?xml version="1.0" encoding="utf-8"?>
<!-- Generator: Adobe Illustrator 16.0.0, SVG Export Plug-In . SVG Version: 6.00 Build 0)  -->
<!DOCTYPE svg PUBLIC "-//W3C//DTD SVG 1.1//EN" "http://www.w3.org/Graphics/SVG/1.1/DTD/svg11.dtd">
<svg version="1.1" id="Layer_1" xmlns="http://www.w3.org/2000/svg" xmlns:xlink="http://www.w3.org/1999/xlink" x="0px" y="0px"
	 width="2909.141px" height="1521px" viewBox="-494.57 0 2909.141 1521" enable-background="new -494.57 0 2909.141 1521"
	 xml:space="preserve">
<g>
	<g>
		<path fill="#FFB7D3" d="M0,1080h1920V0H0V1080z M310.232,880.799c-81.59,0-147.731-66.144-147.731-147.732
			c0-12.314,1.516-24.273,4.355-35.712c-25.561-26.559-41.28-62.654-41.28-102.426c0-81.589,66.142-147.732,147.731-147.732
			s147.731,66.144,147.731,147.732c0,12.314-1.516,24.274-4.355,35.713c25.56,26.558,41.281,62.653,41.281,102.425
			C457.964,814.655,391.822,880.799,310.232,880.799 M920.564,756.715c-1.675,0-3.341-0.037-5.003-0.094
			c-1.662,0.057-3.328,0.094-5.003,0.094c-1.676,0-3.342-0.037-5.003-0.094c-1.662,0.057-3.328,0.094-5.003,0.094
			s-3.341-0.037-5.003-0.094c-1.662,0.057-3.328,0.094-5.003,0.094s-3.341-0.037-5.003-0.094c-1.662,0.057-3.328,0.094-5.003,0.094
			c-1.676,0-3.342-0.037-5.003-0.094c-1.662,0.057-3.328,0.094-5.004,0.094s-3.342-0.037-5.003-0.094
			c-1.661,0.057-3.327,0.094-5.003,0.094c-1.675,0-3.341-0.037-5.003-0.094c-1.662,0.057-3.328,0.094-5.003,0.094
			s-3.341-0.037-5.003-0.094c-1.662,0.057-3.328,0.094-5.003,0.094c-1.676,0-3.342-0.037-5.003-0.094
			c-1.662,0.057-3.328,0.094-5.003,0.094c-27.718,0-53.649-7.641-75.812-20.919c-26.528-10.832-49.201-29.15-65.396-52.337
			c-30.369-13.83-55.236-37.64-70.402-67.241c-1.969-1.864-3.887-3.781-5.75-5.75c-15.917-8.154-30.159-19.112-42.075-32.224
			c-3.492-3.175-6.832-6.514-10.007-10.006c-29.729-27.023-48.392-66.005-48.392-109.346c0-1.675,0.038-3.341,0.093-5.003
			c-0.055-1.662-0.093-3.328-0.093-5.003c0-81.591,66.141-147.732,147.732-147.732c42.258,0,80.366,17.746,107.294,46.187
			c15.916,8.155,30.157,19.113,42.074,32.224c3.493,3.174,6.832,6.514,10.008,10.006c3.491,3.175,6.832,6.514,10.006,10.006
			c3.492,3.174,6.831,6.515,10.006,10.006c3.492,3.175,6.832,6.515,10.006,10.007c2.749,2.499,5.4,5.104,7.954,7.802
			c15.916,8.154,30.159,19.112,42.076,32.222c0.598,0.543,1.185,1.099,1.773,1.651c1.32,0.01,2.638,0.037,3.949,0.08
			c1.661-0.055,3.327-0.093,5.003-0.093c1.675,0,3.341,0.038,5.003,0.093c1.662-0.055,3.328-0.093,5.003-0.093
			c81.59,0,147.732,66.142,147.732,147.731S1002.154,756.715,920.564,756.715 M1000.285,404.761
			c-58.027-19.926-99.733-74.966-99.733-139.753c0-81.59,66.143-147.731,147.731-147.731c46.064,0,87.202,21.086,114.295,54.13
			c58.026,19.926,99.733,74.966,99.733,139.753c0,81.59-66.142,147.732-147.731,147.732
			C1068.516,458.893,1027.379,437.805,1000.285,404.761 M1650.733,656.654c0,1.675-0.038,3.341-0.095,5.003
			c0.057,1.662,0.095,3.328,0.095,5.003c0,19.658-3.85,38.414-10.818,55.569c-2.286,21.862-9.344,42.302-20.107,60.268
			c-9.307,22.798-24.137,42.753-42.839,58.19c-4.513,5.467-9.41,10.604-14.65,15.367c-2.499,2.749-5.104,5.398-7.803,7.953
			c-9.241,18.041-22.087,33.931-37.583,46.722c-4.512,5.466-9.408,10.602-14.65,15.367c-6.359,6.997-13.385,13.382-20.971,19.054
			c-5.673,7.587-12.057,14.61-19.055,20.971c-27.022,29.729-66.006,48.393-109.346,48.393c-1.675,0-3.342-0.038-5.003-0.094
			c-1.662,0.056-3.328,0.094-5.003,0.094c-81.591,0-147.732-66.144-147.732-147.732c0-36.772,13.44-70.404,35.671-96.261
			c8.206-16.329,19.345-30.932,32.733-43.104c6.36-6.997,13.385-13.383,20.971-19.055c7.09-9.481,15.293-18.086,24.414-25.614
			c4.513-5.467,9.409-10.603,14.651-15.367c1.862-2.049,3.788-4.038,5.763-5.979c-2.689-11.149-4.125-22.788-4.125-34.764
			c0-81.591,66.143-147.732,147.732-147.732c1.675,0,3.341,0.038,5.003,0.095c1.662-0.057,3.328-0.095,5.003-0.095
			c43.34,0,82.321,18.664,109.346,48.393c3.492,3.174,6.832,6.514,10.007,10.006c29.729,27.023,48.393,66.005,48.393,109.346
			c0,1.675-0.038,3.341-0.095,5.003C1650.695,653.313,1650.733,654.979,1650.733,656.654"/>
	</g>
</g>
<rect x="0" y="1049" fill="#FFB7D3" width="1920" height="472"/>
<rect x="1920" y="0" fill="#FFB7D3" width="494.57" height="1521"/>
<rect x="-494.57" y="0" fill="#FFB7D3" width="494.57" height="1521"/>
</svg>
