<?xml version="1.0" encoding="utf-8"?>
<!-- Generator: Adobe Illustrator 16.0.0, SVG Export Plug-In . SVG Version: 6.00 Build 0)  -->
<!DOCTYPE svg PUBLIC "-//W3C//DTD SVG 1.1//EN" "http://www.w3.org/Graphics/SVG/1.1/DTD/svg11.dtd">
<svg version="1.1" id="Layer_1" xmlns="http://www.w3.org/2000/svg" xmlns:xlink="http://www.w3.org/1999/xlink" x="0px" y="0px"
	 width="1920px" height="1080px" viewBox="0 0 1920 1080" enable-background="new 0 0 1920 1080" xml:space="preserve">
<g>
	<g>
		<path fill="#FFB7D3" d="M0,1080h1920.001V0H0V1080z M310.232,880.798c-81.59,0-147.732-66.143-147.732-147.732
			c0-12.315,1.516-24.274,4.356-35.712c-25.561-26.559-41.281-62.654-41.281-102.426c0-81.589,66.142-147.732,147.732-147.732
			c81.59,0,147.732,66.143,147.732,147.732c0,12.315-1.516,24.275-4.356,35.713c25.56,26.558,41.281,62.653,41.281,102.425
			C457.964,814.655,391.822,880.798,310.232,880.798 M920.564,756.714c-1.675,0-3.341-0.037-5.003-0.093
			c-1.662,0.056-3.328,0.093-5.003,0.093c-1.676,0-3.342-0.037-5.003-0.093c-1.662,0.056-3.328,0.093-5.003,0.093
			c-1.675,0-3.341-0.037-5.003-0.093c-1.662,0.056-3.328,0.093-5.003,0.093c-1.675,0-3.341-0.037-5.003-0.093
			c-1.662,0.056-3.328,0.093-5.003,0.093s-3.341-0.037-5.003-0.093c-1.662,0.056-3.328,0.093-5.003,0.093
			c-1.676,0-3.342-0.037-5.003-0.093c-1.662,0.056-3.328,0.093-5.003,0.093c-1.675,0-3.341-0.037-5.003-0.093
			c-1.662,0.056-3.328,0.093-5.003,0.093c-1.675,0-3.341-0.037-5.003-0.093c-1.662,0.056-3.328,0.093-5.003,0.093
			c-1.676,0-3.342-0.037-5.003-0.093c-1.662,0.056-3.328,0.093-5.003,0.093c-27.718,0-53.649-7.64-75.812-20.919
			c-26.529-10.832-49.202-29.15-65.396-52.336c-30.369-13.831-55.236-37.64-70.402-67.242c-1.969-1.864-3.887-3.781-5.75-5.75
			c-15.917-8.154-30.159-19.112-42.076-32.223c-3.492-3.175-6.832-6.514-10.006-10.006c-29.729-27.024-48.392-66.005-48.392-109.346
			c0-1.675,0.038-3.341,0.093-5.003c-0.055-1.662-0.093-3.328-0.093-5.003c0-81.59,66.141-147.732,147.732-147.732
			c42.258,0,80.367,17.746,107.294,46.187c15.916,8.155,30.158,19.113,42.075,32.223c3.493,3.174,6.832,6.514,10.007,10.006
			c3.492,3.175,6.832,6.514,10.006,10.006c3.492,3.174,6.831,6.514,10.006,10.006c3.492,3.174,6.832,6.514,10.006,10.006
			c2.749,2.499,5.4,5.104,7.954,7.802c15.916,8.154,30.159,19.112,42.076,32.222c0.598,0.543,1.185,1.098,1.774,1.651
			c1.32,0.01,2.637,0.037,3.949,0.08c1.661-0.055,3.327-0.093,5.003-0.093c1.675,0,3.341,0.038,5.003,0.093
			c1.662-0.055,3.328-0.093,5.003-0.093c81.59,0,147.732,66.142,147.732,147.732S1002.154,756.714,920.564,756.714
			 M1000.286,404.761c-58.028-19.925-99.734-74.965-99.734-139.752c0-81.59,66.143-147.732,147.732-147.732
			c46.064,0,87.202,21.086,114.295,54.13c58.026,19.926,99.733,74.966,99.733,139.753c0,81.59-66.142,147.732-147.731,147.732
			C1068.516,458.893,1027.379,437.805,1000.286,404.761 M1650.733,656.654c0,1.675-0.038,3.341-0.095,5.003
			c0.057,1.662,0.095,3.328,0.095,5.003c0,19.658-3.85,38.414-10.819,55.569c-2.286,21.862-9.343,42.302-20.107,60.268
			c-9.307,22.797-24.137,42.753-42.839,58.19c-4.512,5.467-9.41,10.603-14.65,15.367c-2.499,2.749-5.104,5.399-7.803,7.953
			c-9.241,18.041-22.087,33.931-37.583,46.722c-4.512,5.466-9.408,10.602-14.65,15.367c-6.36,6.997-13.385,13.382-20.971,19.054
			c-5.673,7.587-12.057,14.61-19.055,20.971c-27.022,29.729-66.005,48.392-109.345,48.392c-1.675,0-3.342-0.038-5.003-0.094
			c-1.662,0.056-3.328,0.094-5.003,0.094c-81.591,0-147.732-66.143-147.732-147.732c0-36.773,13.44-70.405,35.67-96.261
			c8.206-16.329,19.345-30.932,32.734-43.104c6.36-6.997,13.384-13.382,20.97-19.054c7.09-9.482,15.293-18.086,24.415-25.615
			c4.512-5.466,9.409-10.602,14.651-15.367c1.862-2.049,3.788-4.038,5.763-5.979c-2.69-11.15-4.125-22.788-4.125-34.764
			c0-81.591,66.142-147.732,147.732-147.732c1.675,0,3.341,0.038,5.003,0.094c1.662-0.056,3.328-0.094,5.003-0.094
			c43.34,0,82.321,18.664,109.346,48.392c3.492,3.174,6.832,6.514,10.006,10.006c29.729,27.024,48.393,66.005,48.393,109.346
			c0,1.675-0.038,3.341-0.095,5.003C1650.695,653.313,1650.733,654.979,1650.733,656.654"/>
	</g>
</g>
</svg>
