<?xml version="1.0" encoding="utf-8"?>
<!-- Generator: Adobe Illustrator 16.0.0, SVG Export Plug-In . SVG Version: 6.00 Build 0)  -->
<!DOCTYPE svg PUBLIC "-//W3C//DTD SVG 1.1//EN" "http://www.w3.org/Graphics/SVG/1.1/DTD/svg11.dtd">
<svg version="1.1" id="Layer_1" xmlns="http://www.w3.org/2000/svg" xmlns:xlink="http://www.w3.org/1999/xlink" x="0px" y="0px"
	 width="2909.141px" height="1521px" viewBox="0 0 2909.141 1521" enable-background="new 0 0 2909.141 1521" xml:space="preserve">
<g>
	<g>
		<g>
			<path fill="#FFB7D3" d="M494.571,1080h1920V0h-1920V1080z M804.802,880.8c-81.59,0-147.73-66.145-147.73-147.732
				c0-12.313,1.516-24.272,4.354-35.712c-25.561-26.559-41.279-62.654-41.279-102.426c0-81.589,66.142-147.732,147.73-147.732
				s147.73,66.145,147.73,147.732c0,12.313-1.516,24.273-4.354,35.713c25.56,26.558,41.281,62.653,41.281,102.425
				C952.535,814.655,886.392,880.8,804.802,880.8 M1415.135,756.716c-1.675,0-3.341-0.037-5.003-0.095
				c-1.662,0.058-3.328,0.095-5.003,0.095c-1.676,0-3.342-0.037-5.003-0.095c-1.662,0.058-3.328,0.095-5.003,0.095
				s-3.341-0.037-5.003-0.095c-1.662,0.058-3.328,0.095-5.003,0.095s-3.341-0.037-5.003-0.095c-1.662,0.058-3.328,0.095-5.003,0.095
				c-1.677,0-3.343-0.037-5.003-0.095c-1.662,0.058-3.328,0.095-5.005,0.095c-1.676,0-3.342-0.037-5.003-0.095
				c-1.661,0.058-3.327,0.095-5.003,0.095c-1.675,0-3.341-0.037-5.003-0.095c-1.662,0.058-3.328,0.095-5.003,0.095
				s-3.341-0.037-5.003-0.095c-1.662,0.058-3.328,0.095-5.003,0.095c-1.676,0-3.342-0.037-5.003-0.095
				c-1.662,0.058-3.328,0.095-5.003,0.095c-27.718,0-53.649-7.642-75.812-20.919c-26.527-10.832-49.2-29.15-65.396-52.337
				c-30.369-13.83-55.236-37.641-70.402-67.241c-1.969-1.864-3.887-3.781-5.75-5.75c-15.917-8.154-30.159-19.112-42.075-32.225
				c-3.491-3.175-6.831-6.514-10.007-10.006c-29.729-27.022-48.392-66.005-48.392-109.346c0-1.675,0.038-3.341,0.093-5.003
				c-0.055-1.662-0.093-3.328-0.093-5.003c0-81.592,66.141-147.732,147.731-147.732c42.259,0,80.366,17.746,107.295,46.188
				c15.916,8.154,30.156,19.112,42.073,32.224c3.493,3.174,6.832,6.514,10.008,10.006c3.491,3.175,6.832,6.514,10.007,10.006
				c3.491,3.175,6.83,6.516,10.006,10.007c3.492,3.175,6.832,6.515,10.006,10.007c2.749,2.499,5.399,5.104,7.954,7.802
				c15.916,8.154,30.159,19.112,42.075,32.222c0.599,0.543,1.186,1.1,1.773,1.651c1.32,0.01,2.638,0.037,3.949,0.08
				c1.661-0.055,3.327-0.093,5.003-0.093c1.675,0,3.341,0.038,5.003,0.093c1.662-0.055,3.328-0.093,5.003-0.093
				c81.59,0,147.731,66.142,147.731,147.73S1496.725,756.716,1415.135,756.716 M1494.856,404.761
				c-58.027-19.927-99.733-74.967-99.733-139.754c0-81.59,66.143-147.73,147.731-147.73c46.064,0,87.201,21.086,114.295,54.13
				c58.025,19.926,99.732,74.966,99.732,139.753c0,81.59-66.141,147.732-147.73,147.732
				C1563.086,458.893,1521.949,437.805,1494.856,404.761 M2145.303,656.654c0,1.675-0.037,3.341-0.094,5.003
				c0.057,1.662,0.094,3.328,0.094,5.003c0,19.658-3.85,38.414-10.818,55.569c-2.285,21.862-9.344,42.302-20.105,60.268
				c-9.309,22.799-24.137,42.753-42.84,58.19c-4.514,5.467-9.41,10.604-14.65,15.367c-2.498,2.749-5.104,5.397-7.803,7.953
				c-9.24,18.041-22.086,33.931-37.582,46.722c-4.512,5.466-9.408,10.602-14.65,15.367c-6.359,6.997-13.385,13.382-20.971,19.054
				c-5.674,7.587-12.057,14.61-19.055,20.971c-27.023,29.729-66.008,48.394-109.348,48.394c-1.674,0-3.342-0.038-5.002-0.094
				c-1.662,0.056-3.328,0.094-5.004,0.094c-81.59,0-147.732-66.145-147.732-147.732c0-36.771,13.441-70.403,35.672-96.261
				c8.207-16.329,19.346-30.932,32.732-43.104c6.361-6.997,13.385-13.384,20.971-19.056c7.092-9.48,15.293-18.086,24.414-25.614
				c4.514-5.467,9.41-10.603,14.652-15.366c1.861-2.05,3.787-4.038,5.762-5.979c-2.688-11.148-4.125-22.788-4.125-34.764
				c0-81.591,66.145-147.732,147.732-147.732c1.676,0,3.342,0.038,5.004,0.096c1.662-0.058,3.328-0.096,5.002-0.096
				c43.34,0,82.322,18.664,109.346,48.394c3.492,3.174,6.832,6.514,10.008,10.006c29.729,27.022,48.393,66.005,48.393,109.346
				c0,1.675-0.037,3.341-0.096,5.003C2145.266,653.313,2145.303,654.979,2145.303,656.654"/>
		</g>
	</g>
	<rect x="494.571" y="1049" fill="#FFB7D3" width="1920" height="472"/>
	<rect x="2381.247" y="0" fill="#FFB7D3" width="527.894" height="1521"/>
	<rect x="0.001" y="0" fill="#FFB7D3" width="503.07" height="1521"/>
</g>
</svg>
